<?xml version="1.0" encoding="iso-8859-1"?>
<!-- Generator: Adobe Illustrator 18.0.0, SVG Export Plug-In . SVG Version: 6.00 Build 0)  -->
<!DOCTYPE svg PUBLIC "-//W3C//DTD SVG 1.1//EN" "http://www.w3.org/Graphics/SVG/1.1/DTD/svg11.dtd">
<svg xmlns="http://www.w3.org/2000/svg" xmlns:xlink="http://www.w3.org/1999/xlink" version="1.1" id="Capa_1" x="0px" y="0px" viewBox="0 0 60.015 60.015" style="enable-background:new 0 0 60.015 60.015;" xml:space="preserve" width="512px" height="512px">
<path d="M42.008,0h-24c-9.925,0-18,8.075-18,18v14c0,9.925,8.075,18,18,18h1.78c6.968,0,13.519,2.713,18.446,7.64l1.876,1.877  c0.322,0.321,0.746,0.498,1.195,0.498c0.938,0,1.702-0.762,1.702-1.699v-8.344c9.462-0.521,17-8.383,17-17.973V18  C60.008,8.075,51.932,0,42.008,0z M17.008,17.015h14c0.553,0,1,0.448,1,1s-0.447,1-1,1h-14c-0.553,0-1-0.448-1-1  S16.455,17.015,17.008,17.015z M44.008,35.015h-27c-0.553,0-1-0.448-1-1s0.447-1,1-1h27c0.553,0,1,0.448,1,1  S44.56,35.015,44.008,35.015z M44.008,27.015h-27c-0.553,0-1-0.448-1-1s0.447-1,1-1h27c0.553,0,1,0.448,1,1  S44.56,27.015,44.008,27.015z"/>
<g>
</g>
<g>
</g>
<g>
</g>
<g>
</g>
<g>
</g>
<g>
</g>
<g>
</g>
<g>
</g>
<g>
</g>
<g>
</g>
<g>
</g>
<g>
</g>
<g>
</g>
<g>
</g>
<g>
</g>
</svg>
